# xmcd CD database file
#
# Track frame offsets:
#	180
#	12961
#	24094
#	36665
#	48843
#	62676
#	70959
#	83195
#	96656
#	104451
#	117990
#	131008
#	145264
#	155525
#	167081
#	179072
#	191988
#	203429
#	218128
#	230345
#	242701
#	254898
#	266850
#	279999
#	294432
#	307697
#
# Disc length: 4366 seconds
#
# Revision: 0
# Processed by: cddbd v1.5.2PL0 Copyright (c) Steve Scherf et al.
# Submitted via: CDex 1.51
#
DISCID=88110c1a
DTITLE=Country Trail - CD 10
DYEAR=1900
DGENRE=Country
TTITLE0=Bill Haley - Behind the eight Ball
TTITLE1=Hank Penny - I´m gonna change Things
TTITLE2=Milton Brown - Mama don´t allow it
TTITLE3=Boots Woodball - Since you´ve been Gone
TTITLE4=Bob Wills - Faded Love
TTITLE5=Johnny Bond - Ridin down to Santa Fe
TTITLE6=Littel Jimmy Dickens - A Sleeping at the Foot of the Bed
TTITLE7=Joe Werner - Running Around
TTITLE8=Bob Wills - Cotton Eyed Joe
TTITLE9=B.F. Shelton - Oh Molly Dear
TTITLE10=Jimmy Rodgers - Blue Yodel No. 10
TTITLE11=Alfred Karnes - Called to the foreign Field
TTITLE12=Louis Innis - Jug Band Boogie
TTITLE13=Hank Penny - Talkin´bout You
TTITLE14=Jack Rivers - Dear Oakie
TTITLE15=Louise Massey - Squeeze Box Polka
TTITLE16=Texas Ruby - Don´t lat that Man get you Down
TTITLE17=Yellow Jackets - Huskin´ Bee
TTITLE18=Merle Travis - Missouri
TTITLE19=Leon Payne - I Love you because
TTITLE20=Hank Penny - Get yourself a red Head
TTITLE21=Adolph Hofner - Alamo Rag
TTITLE22=Hank Williams - Hey good lookin
TTITLE23=Fort Worth Doughboys - Nancy Jane
TTITLE24=Wayen Raney - Pan American Boogie
TTITLE25=B.F. Shelton - Pretty Polly
EXTD=
EXTT0=
EXTT1=
EXTT2=
EXTT3=
EXTT4=
EXTT5=
EXTT6=
EXTT7=
EXTT8=
EXTT9=
EXTT10=
EXTT11=
EXTT12=
EXTT13=
EXTT14=
EXTT15=
EXTT16=
EXTT17=
EXTT18=
EXTT19=
EXTT20=
EXTT21=
EXTT22=
EXTT23=
EXTT24=
EXTT25=
PLAYORDER=
